<?xml version="1.0" encoding="utf-8"?><svg viewBox="0 0 127 30" xmlns="http://www.w3.org/2000/svg" xmlns:xlink="http://www.w3.org/1999/xlink"><style>:root>svg{display:none}:root>svg:target{display:block}</style><svg fill="none" viewBox="0 0 8 5" id="arrow" xmlns="http://www.w3.org/2000/svg"><path fill-rule="evenodd" clip-rule="evenodd" d="M7.063 0L8 .938l-4 4-4-4L.938 0 4 3.063 7.063 0z" fill="#5B5E77"/></svg><svg viewBox="0 0 24 24" id="autorenew" xmlns="http://www.w3.org/2000/svg"><path d="M12 6v3l4-4-4-4v3c-4.42 0-8 3.58-8 8 0 1.57.46 3.03 1.24 4.26L6.7 14.8A5.87 5.87 0 016 12c0-3.31 2.69-6 6-6zm6.76 1.74L17.3 9.2c.44.84.7 1.79.7 2.8 0 3.31-2.69 6-6 6v-3l-4 4 4 4v-3c4.42 0 8-3.58 8-8 0-1.57-.46-3.03-1.24-4.26z"/><path d="M0 0h24v24H0z" fill="none"/></svg><svg viewBox="0 0 24 24" id="cancel" xmlns="http://www.w3.org/2000/svg"><path d="M12 2C6.47 2 2 6.47 2 12s4.47 10 10 10 10-4.47 10-10S17.53 2 12 2zm5 13.59L15.59 17 12 13.41 8.41 17 7 15.59 10.59 12 7 8.41 8.41 7 12 10.59 15.59 7 17 8.41 13.41 12 17 15.59z"/><path d="M0 0h24v24H0z" fill="none"/></svg><svg fill="none" viewBox="0 0 10 6" id="check" xmlns="http://www.w3.org/2000/svg"><path d="M1.564 2.612l-.897.804L3.549 6 9.334.804 8.437 0 3.55 4.392l-1.985-1.78z" fill="#fff"/></svg><svg viewBox="0 0 24 24" id="delete" xmlns="http://www.w3.org/2000/svg"><path d="M6 19c0 1.1.9 2 2 2h8c1.1 0 2-.9 2-2V7H6v12zM19 4h-3.5l-1-1h-5l-1 1H5v2h14V4z"/><path d="M0 0h24v24H0z" fill="none"/></svg><svg viewBox="0 0 24 24" id="done" xmlns="http://www.w3.org/2000/svg"><path d="M0 0h24v24H0z" fill="none"/><path d="M9 16.2L4.8 12l-1.4 1.4L9 19 21 7l-1.4-1.4L9 16.2z"/></svg><svg viewBox="0 0 24 24" id="edit" xmlns="http://www.w3.org/2000/svg"><path d="M3 17.25V21h3.75L17.81 9.94l-3.75-3.75L3 17.25zM20.71 7.04a.996.996 0 000-1.41l-2.34-2.34a.996.996 0 00-1.41 0l-1.83 1.83 3.75 3.75 1.83-1.83z"/><path d="M0 0h24v24H0z" fill="none"/></svg><svg viewBox="0 0 24 24" id="filter" xmlns="http://www.w3.org/2000/svg"><path d="M10 18h4v-2h-4v2zM3 6v2h18V6H3zm3 7h12v-2H6v2z"/><path d="M0 0h24v24H0z" fill="none"/></svg><svg viewBox="0 0 127 30" id="logo" xmlns="http://www.w3.org/2000/svg"><defs><style>.icls-1{font-size:41.667px;fill:#131948;font-family:Magneto;font-weight:700}</style></defs><text id="iToDo" class="icls-1" x=".667" y="29">ToDo</text></svg><svg viewBox="0 0 24 24" id="refresh" xmlns="http://www.w3.org/2000/svg"><path d="M17.65 6.35A7.958 7.958 0 0012 4c-4.42 0-7.99 3.58-7.99 8s3.57 8 7.99 8c3.73 0 6.84-2.55 7.73-6h-2.08A5.99 5.99 0 0112 18c-3.31 0-6-2.69-6-6s2.69-6 6-6c1.66 0 3.14.69 4.22 1.78L13 11h7V4l-2.35 2.35z"/><path d="M0 0h24v24H0z" fill="none"/></svg><svg viewBox="0 0 24 24" id="save" xmlns="http://www.w3.org/2000/svg"><path d="M0 0h24v24H0z" fill="none"/><path d="M17 3H5a2 2 0 00-2 2v14a2 2 0 002 2h14c1.1 0 2-.9 2-2V7l-4-4zm-5 16c-1.66 0-3-1.34-3-3s1.34-3 3-3 3 1.34 3 3-1.34 3-3 3zm3-10H5V5h10v4z"/></svg><svg viewBox="0 0 24 24" id="search" xmlns="http://www.w3.org/2000/svg"><path d="M15.5 14h-.79l-.28-.27A6.471 6.471 0 0016 9.5 6.5 6.5 0 109.5 16c1.61 0 3.09-.59 4.23-1.57l.27.28v.79l5 4.99L20.49 19l-4.99-5zm-6 0C7.01 14 5 11.99 5 9.5S7.01 5 9.5 5 14 7.01 14 9.5 11.99 14 9.5 14z"/><path d="M0 0h24v24H0z" fill="none"/></svg></svg>